HIERARCHY
ROOT hips
{
  OFFSET 0 9.313263304106702 1.2146308026317778
  CHANNELS 6 Xposition Yposition Zposition Yrotation Xrotation Zrotation
  JOINT spine
  {
    OFFSET -6.402521e-31 0.5173342420023708 0
    CHANNELS 3 Yrotation Xrotation Zrotation
    JOINT chest
    {
      OFFSET 0 1.130544299341115 0
      CHANNELS 3 Yrotation Xrotation Zrotation
      JOINT upperChest
      {
        OFFSET 0 1.0863555061129995 0
        CHANNELS 3 Yrotation Xrotation Zrotation
        JOINT neck
        {
          OFFSET 0 1.3773706506454462 0
          CHANNELS 3 Yrotation Xrotation Zrotation
          JOINT head
          {
            OFFSET 0 0.7374408940073979 0
            CHANNELS 3 Yrotation Xrotation Zrotation
            JOINT leftEye
            {
              OFFSET 0.25066580148932727 0.6408406698778757 0.15963719178883284
              CHANNELS 3 Yrotation Xrotation Zrotation
              End Site
              {
                OFFSET 0.25066580148932727 0.6408406698778757 0.15963719178883284
              }
            }
            JOINT rightEye
            {
              OFFSET -0.25066576739704244 0.6408406384191823 0.15963727561643756
              CHANNELS 3 Yrotation Xrotation Zrotation
              End Site
              {
                OFFSET -0.25066576739704244 0.6408406384191823 0.15963727561643756
              }
            }
          }
        }
        JOINT leftShoulder
        {
          OFFSET 0.3761817444281191 1.0539491987447769 0
          CHANNELS 3 Yrotation Xrotation Zrotation
          JOINT leftUpperArm
          {
            OFFSET 0.8702844380000002 0 0
            CHANNELS 3 Yrotation Xrotation Zrotation
            JOINT leftLowerArm
            {
              OFFSET 2.198527310000323 0 0
              CHANNELS 3 Yrotation Xrotation Zrotation
              JOINT leftHand
              {
                OFFSET 2.146852313968281 0 0
                CHANNELS 3 Yrotation Xrotation Zrotation
                JOINT leftIndexProximal
                {
                  OFFSET 0.6585177834681599 0.07380250427007962 0.18382213159631788
                  CHANNELS 3 Yrotation Xrotation Zrotation
                  JOINT leftIndexIntermediate
                  {
                    OFFSET 0.3323021288626682 -0.009606893929485771 -0.012820872253340998
                    CHANNELS 3 Yrotation Xrotation Zrotation
                    JOINT leftIndexDistal
                    {
                      OFFSET 0.2045908926985518 -0.0071133989147997845 -0.006828784783599051
                      CHANNELS 3 Yrotation Xrotation Zrotation
                      End Site
                      {
                        OFFSET 0.2045908926985518 -0.0071133989147997845 -0.006828784783599051
                      }
                    }
                  }
                }
                JOINT leftLittleProximal
                {
                  OFFSET 0.6110054258835662 0.07380246363125398 -0.29175655876064077
                  CHANNELS 3 Yrotation Xrotation Zrotation
                  JOINT leftLittleIntermediate
                  {
                    OFFSET 0.3144281999999998 -2.5124724523095665e-9 1.8658118799974588e-7
                    CHANNELS 3 Yrotation Xrotation Zrotation
                    JOINT leftLittleDistal
                    {
                      OFFSET 0.18116185580251631 0.002815456192251098 0.0034826415518049436
                      CHANNELS 3 Yrotation Xrotation Zrotation
                      End Site
                      {
                        OFFSET 0.18116185580251631 0.002815456192251098 0.0034826415518049436
                      }
                    }
                  }
                }
                JOINT leftMiddleProximal
                {
                  OFFSET 0.6637478005691111 0.07380246480054087 0.02046981859247815
                  CHANNELS 3 Yrotation Xrotation Zrotation
                  JOINT leftMiddleIntermediate
                  {
                    OFFSET 0.3705733999999994 -2.9611069152224445e-9 9.35054791928458e-8
                    CHANNELS 3 Yrotation Xrotation Zrotation
                    JOINT leftMiddleDistal
                    {
                      OFFSET 0.22861063500000056 -1.82673876025774e-9 -1.6740782024515788e-7
                      CHANNELS 3 Yrotation Xrotation Zrotation
                      End Site
                      {
                        OFFSET 0.22861063500000056 -1.82673876025774e-9 -1.6740782024515788e-7
                      }
                    }
                  }
                }
                JOINT leftRingProximal
                {
                  OFFSET 0.6561845547265777 0.07380246406440083 -0.13588087571513918
                  CHANNELS 3 Yrotation Xrotation Zrotation
                  JOINT leftRingIntermediate
                  {
                    OFFSET 0.3437531000000005 -2.746796123886952e-9 1.4935781944558357e-7
                    CHANNELS 3 Yrotation Xrotation Zrotation
                    JOINT leftRingDistal
                    {
                      OFFSET 0.1983118991198174 -0.002467117924596085 -0.004538141969590015
                      CHANNELS 3 Yrotation Xrotation Zrotation
                      End Site
                      {
                        OFFSET 0.1983118991198174 -0.002467117924596085 -0.004538141969590015
                      }
                    }
                  }
                }
                JOINT leftThumbProximal
                {
                  OFFSET 0.09767004258864787 -0.14930060425447422 -0.07008212897521154
                  CHANNELS 3 Yrotation Xrotation Zrotation
                  JOINT leftThumbIntermediate
                  {
                    OFFSET 0.36682123028154767 -0.015768465060082004 0.28693641268151077
                    CHANNELS 3 Yrotation Xrotation Zrotation
                    JOINT leftThumbDistal
                    {
                      OFFSET 0.21091084272403915 -0.016756648201192714 0.1933767059105508
                      CHANNELS 3 Yrotation Xrotation Zrotation
                      End Site
                      {
                        OFFSET 0.21091084272403915 -0.016756648201192714 0.1933767059105508
                      }
                    }
                  }
                }
              }
            }
          }
        }
        JOINT rightShoulder
        {
          OFFSET -0.37618174442811925 1.0539491987447769 0
          CHANNELS 3 Yrotation Xrotation Zrotation
          JOINT rightUpperArm
          {
            OFFSET -0.870284438 0 0
            CHANNELS 3 Yrotation Xrotation Zrotation
            JOINT rightLowerArm
            {
              OFFSET -2.1985273100003235 0 0
              CHANNELS 3 Yrotation Xrotation Zrotation
              JOINT rightHand
              {
                OFFSET -2.1468523139682802 0 0
                CHANNELS 3 Yrotation Xrotation Zrotation
                JOINT rightIndexProximal
                {
                  OFFSET -0.6585177834681599 0.07380250427007962 0.18382213159631788
                  CHANNELS 3 Yrotation Xrotation Zrotation
                  JOINT rightIndexIntermediate
                  {
                    OFFSET -0.3323021288626682 -0.009606893929485771 -0.012820872253340998
                    CHANNELS 3 Yrotation Xrotation Zrotation
                    JOINT rightIndexDistal
                    {
                      OFFSET -0.2045908926985518 -0.0071133989147997845 -0.006828784783599051
                      CHANNELS 3 Yrotation Xrotation Zrotation
                      End Site
                      {
                        OFFSET -0.2045908926985518 -0.0071133989147997845 -0.006828784783599051
                      }
                    }
                  }
                }
                JOINT rightLittleProximal
                {
                  OFFSET -0.6110054258835662 0.07380246363125398 -0.29175655876064077
                  CHANNELS 3 Yrotation Xrotation Zrotation
                  JOINT rightLittleIntermediate
                  {
                    OFFSET -0.3144281999999998 -2.5124724523095665e-9 1.8658118799974588e-7
                    CHANNELS 3 Yrotation Xrotation Zrotation
                    JOINT rightLittleDistal
                    {
                      OFFSET -0.18116185580251631 0.002815456192251098 0.0034826415518049436
                      CHANNELS 3 Yrotation Xrotation Zrotation
                      End Site
                      {
                        OFFSET -0.18116185580251631 0.002815456192251098 0.0034826415518049436
                      }
                    }
                  }
                }
                JOINT rightMiddleProximal
                {
                  OFFSET -0.6637478005691111 0.07380246480054087 0.02046981859247815
                  CHANNELS 3 Yrotation Xrotation Zrotation
                  JOINT rightMiddleIntermediate
                  {
                    OFFSET -0.3705733999999994 -2.9611069152224445e-9 9.35054791928458e-8
                    CHANNELS 3 Yrotation Xrotation Zrotation
                    JOINT rightMiddleDistal
                    {
                      OFFSET -0.22861063500000056 -1.82673876025774e-9 -1.6740782024515788e-7
                      CHANNELS 3 Yrotation Xrotation Zrotation
                      End Site
                      {
                        OFFSET -0.22861063500000056 -1.82673876025774e-9 -1.6740782024515788e-7
                      }
                    }
                  }
                }
                JOINT rightRingProximal
                {
                  OFFSET -0.6561845547265777 0.07380246406440083 -0.13588087571513918
                  CHANNELS 3 Yrotation Xrotation Zrotation
                  JOINT rightRingIntermediate
                  {
                    OFFSET -0.3437531000000005 -2.746796123886952e-9 1.4935781944558357e-7
                    CHANNELS 3 Yrotation Xrotation Zrotation
                    JOINT rightRingDistal
                    {
                      OFFSET -0.1983118991198174 -0.002467117924596085 -0.004538141969590015
                      CHANNELS 3 Yrotation Xrotation Zrotation
                      End Site
                      {
                        OFFSET -0.1983118991198174 -0.002467117924596085 -0.004538141969590015
                      }
                    }
                  }
                }
                JOINT rightThumbProximal
                {
                  OFFSET -0.09767004258864787 -0.14930060425447422 -0.07008212897521154
                  CHANNELS 3 Yrotation Xrotation Zrotation
                  JOINT rightThumbIntermediate
                  {
                    OFFSET -0.36682123028154767 -0.015768465060082004 0.28693641268151077
                    CHANNELS 3 Yrotation Xrotation Zrotation
                    JOINT rightThumbDistal
                    {
                      OFFSET -0.21091084272403915 -0.016756648201192714 0.1933767059105508
                      CHANNELS 3 Yrotation Xrotation Zrotation
                      End Site
                      {
                        OFFSET -0.21091084272403915 -0.016756648201192714 0.1933767059105508
                      }
                    }
                  }
                }
              }
            }
          }
        }
      }
    }
  }
  JOINT leftUpperLeg
  {
    OFFSET 0.7715603 -0.3993844658041501 0
    CHANNELS 3 Yrotation Xrotation Zrotation
    JOINT leftLowerLeg
    {
      OFFSET 0 -3.529830000249343 0
      CHANNELS 3 Yrotation Xrotation Zrotation
      JOINT leftFoot
      {
        OFFSET 0 -4.154939295409685 0.004208579085223096
        CHANNELS 3 Yrotation Xrotation Zrotation
        JOINT leftToes
        {
          OFFSET 0 -0.6353414391261847 1.10414981190622
          CHANNELS 3 Yrotation Xrotation Zrotation
          End Site
          {
            OFFSET 0 -0.6015820691747853 1.10414981190622
          }
        }
      }
    }
  }
  JOINT rightUpperLeg
  {
    OFFSET -0.7715603 -0.3993844658041501 0
    CHANNELS 3 Yrotation Xrotation Zrotation
    JOINT rightLowerLeg
    {
      OFFSET 0 -3.529830000249343 0
      CHANNELS 3 Yrotation Xrotation Zrotation
      JOINT rightFoot
      {
        OFFSET 0 -4.154939295409685 0.004208579085223096
        CHANNELS 3 Yrotation Xrotation Zrotation
        JOINT rightToes
        {
          OFFSET 0 -0.6353414391261847 1.10414981190622
          CHANNELS 3 Yrotation Xrotation Zrotation
          End Site
          {
            OFFSET 0 -0.6015820691747853 1.10414981190622
          }
        }
      }
    }
  }
}
MOTION
Frames: 4
Frame Time: 0.03333333333333333
0.041368519040671264 8.78533970225941 1.349073278340826 1.5779228531195015 -0.8929613467005346 -5.383717386054713 -1.1978440553887175 1.2977540552054212 2.989644330880772 1.1154038208493697 1.3545636844903879 11.82036329798039 0 0 0 -0.3047448039601589 1.045292718549522 -2.1695463684194363 0.5443823578790734 1.5848605193014793 -8.125439090548742 0 0 0 0 0 0 -13.789962907587064 3.4793679657513317 -5.897853843620063 3.5230108668386277 4.0252322015402555 -83.43060589015788 -14.506750263385868 -0.000025303005462133385 0.000016803895691222832 4.171885052270736 -27.530159312371786 -11.347224273765711 4.666376816131205 0.3377558245044024 -7.8165386001688795 2.8352024738797668 0.38900814191996014 -20.54712516190808 0.8092453791383926 0.03451379506689846 -10.169324719116556 16.293311382862054 5.494340284675505 -35.37887782142332 3.991800253747401 1.5251489701069845 -45.543749098981806 2.8329860336962667 0.556870088211422 -20.498786136160486 8.766890454557133 0.900932567228286 -15.69264595671324 3.9942409704258495 0.9161817078480881 -33.33644370130335 1.491257165521064 0.1707483118828734 -12.25997513934023 11.684957740813973 2.503235441009879 -26.391625041417516 3.8883472374676398 1.7071623226741532 -40.09945628167511 1.8351142345072535 0.5448150476016405 -19.32669206442941 0.21222428220677292 18.63954279492701 11.135308150414007 31.89662543494654 0.8128248979070422 -2.731584858388664 8.678218776812662 1.797338877329304 -0.187761041528116 3.3346857029101287 4.5005311610097225 5.733529305350328 0.6560202211380002 -1.2196387105833324 67.33147284493522 17.736784740459747 -0.000004966669511485595 -0.00001252434975267741 -9.297202385680007 -11.050104742831026 11.93640484214336 -4.690093679613141 0.34099568552252013 7.81659306725378 -2.7951359724918836 0.38290997865147125 20.547232291918327 -0.22653975602459953 -0.19321699964674868 13.84465871841949 -16.052846552798755 5.324149663096597 35.400365953894855 -4.028964396842665 1.2635389604437037 45.5500536035249 -0.3119464672100931 -0.7652550551445936 22.12467344509632 -8.825803751234716 0.9174630659685352 15.691772620126063 -3.901006779766127 0.8949814609541203 33.33695448068567 -1.7259529506605171 0.21556262610533 15.891667692377304 -11.668423548267487 2.495016028483457 26.39237826316102 -3.9123709102287156 1.7116376613118194 40.099265361791645 0.0232455418023564 -0.1516859254121345 17.81530484392548 -0.3228617225340471 18.662911836163705 -11.194167081320623 -31.78223213273062 0.7795758481058769 2.7762318422125625 -7.715272538304421 1.6393099287470414 1.0072177636047812 11.457907829206905 -19.19529979170082 12.123825593948943 10.232080739182539 21.727390359031318 6.162118378803054 3.352189644975473 -1.488254792845081 -8.869089700243968 -0.0000015276862065965305 -0.44197226397234274 -0.000005256756066462233 -4.968650380710203 -1.5972990340494106 10.692920193644937 -5.20525261753718 12.395168645990976 2.1480242489959274 1.0250494077663 -9.843353005982951 -7.93186175101412 -0.0000015357457005788123 -0.5486530415981868 -3.7966833224099225e-7
0.049269582060250366 8.78630291331898 1.35000217609012 1.5741604132684295 -0.8954628346042286 -5.3336195469628604 -1.1825322446849336 1.2939949956413745 2.95985342470169 1.1631669188093348 1.3945945639418753 11.754385834755322 0 0 0 -0.21709269484977237 1.0736898163551107 -2.168040922506076 0.9727844959992736 1.6496324615801174 -8.175053249167405 0 0 0 0 0 0 -13.789343115761191 3.4821700974975873 -5.8865974228359 3.4894114656712287 4.070836743519975 -83.41743090373194 -14.526796213215196 0.000007888760818647676 0.00001713426138176379 4.236995447776592 -27.4968767457383 -11.600997548070394 4.66638192188174 0.3377439248274561 -7.816559365169733 2.835206098059804 0.3890199883023502 -20.547120365038438 0.8092316134093184 0.03450631454097694 -10.16931295405894 16.293400725903005 5.494401182392229 -35.378855078305115 3.9918113298022555 1.525151212057043 -45.543749098981806 2.8329890183929938 0.5568772389034496 -20.49878293715989 8.767095665328098 0.9009894569308047 -15.69263023595642 3.9942490626093634 0.9161830954076539 -33.33647591466559 1.4912544983701843 0.17075284757551065 -12.259968464889694 11.68504991155226 2.5032717610484965 -26.391609742563325 3.8883434026280232 1.7071788718840895 -40.09947072414016 1.8351206348149125 0.544811899168985 -19.326694806114446 0.21222766033505305 18.639557211482312 11.13528162826273 31.89662543494654 0.8128141712962463 -2.731600586390005 8.678220465641692 1.7973371689415165 -0.18775842557338113 3.3589178432747877 4.497388127280683 5.748217727068043 0.6820629219145187 -1.28200679894139 67.35103930660061 17.65172150506672 0.000009275398794899945 -0.00001014681418919191 -9.77980051291644 -10.82779804567904 11.639782305694888 -4.690091552288412 0.34100152863939565 7.816577377380369 -2.7951332009668897 0.38290781748866765 20.547197117169652 -0.22653951590126645 -0.1932121171009472 13.844664509470842 -16.05284490472342 5.324144946994771 35.40035359275211 -4.0289703599384845 1.2635507026865591 45.55003428102435 -0.3119395564656864 -0.7652618325774155 22.12467344509632 -8.825801219916862 0.9174727788889842 15.691752687274427 -3.900998260771731 0.8949750568705094 33.336946896652385 -1.725949323743078 0.2155569031133549 15.891670269801404 -11.66841030306774 2.4950156011915663 26.39238437573354 -3.912369631982432 1.711634351462134 40.09927760359418 0.023247364415206095 -0.15168205673674287 17.815292419369648 -0.3228563923008933 18.662919045433622 -11.194183509129317 -31.782239738182028 0.779578729858676 2.776269959488354 -7.715272538304421 1.6393124911167003 1.0072259832706467 11.49083303202141 -19.15136593606756 12.011935963050785 10.205734041727094 21.72090188395924 6.13532211984472 3.3765817133403617 -1.5267034961346455 -8.805858675353509 -0.000007494804367507188 -0.443703928731689 -1.3553294351843086e-7 -5.035484256629068 -1.6080490479093494 10.563817399761751 -5.187239136716597 12.460131324550906 2.1639034403567776 1.0418310540544937 -9.88362051322885 -7.874366341437363 -0.00000411874749050439 -0.573426151622989 0.000004735685075511844
0.05716306919401341 8.787291266701438 1.3543952009681883 1.5409569676247414 -0.9188465703536137 -5.277565860802908 -1.1673313291771508 1.2730690889969036 2.9245821341244667 1.1880907148769295 1.4456627138744265 11.677428071270345 0 0 0 -0.1295766251565162 1.1111487938154752 -2.1664689519099154 1.3820669253322158 1.6894319010141483 -8.225606625501444 0 0 0 0 0 0 -13.78871919713284 3.4849591934133204 -5.875369363942159 3.4713088772811176 4.177656214874752 -83.40132772835378 -14.634082668165945 -0.000028249393153729658 -0.0000031976879478659954 4.430058719190131 -27.49137907339422 -11.821454514777935 4.666380645444113 0.33776081383083933 -7.816537754313277 2.835196291454945 0.38900915579953343 -20.547100379217202 0.8092457526271647 0.034510876894726594 -10.169312113697648 16.293499264178493 5.4944779478327455 -35.37882674054082 3.991812419628831 1.5251559094762208 -45.543749098981806 2.8329673171404925 0.5568640581502413 -20.498766149697442 8.767302043324797 0.9010558460406836 -15.692598794441352 3.9942373252779046 0.9161677255171075 -33.3364512853889 1.4912692210429586 0.17076145205125187 -12.25998087036927 11.685140956313456 2.5033320095853626 -26.39159139319195 3.8883416982548495 1.7071592263703748 -40.09945628167511 1.8351091142610934 0.5448157946873555 -19.32668723024581 0.2122279278279072 18.639557211482312 11.135304426110778 31.896628334663173 0.8128199348483123 -2.731570359269427 8.678208128298465 1.7973531850770867 -0.1877461332554582 3.3787326400151185 4.493361723912054 5.736191725795198 0.8101766838483977 -1.4669934546898529 67.4096025284938 17.504819191524394 -0.000001949499873119978 0.000009767789777801285 -10.289950059761365 -10.612261197369858 11.332853915204936 -4.690091552288412 0.34099259053824044 7.816566381254681 -2.795136185686114 0.3829163820968186 20.547221499538047 -0.22653543380460264 -0.19321753325831176 13.844657060470343 -16.05284490472342 5.324150520569661 35.400350796963856 -4.028965248713502 1.2635437640885019 45.550029450399194 -0.31194841502608245 -0.7652546815853045 22.124679477282445 -8.825802063689485 0.9174765146276255 15.691768408116094 -3.9009969829225555 0.894966784929195 33.33695448068567 -1.7259561508817751 0.21555863735334715 15.891678481293257 -11.668397894791719 2.4950083372294474 26.392419543180118 -3.9123730406391806 1.7116388357746124 40.09928461845138 0.02324569521533186 -0.15168255032636174 17.815290793697343 -0.32285901125194844 18.662915440798624 -11.19416177723594 -31.782244440343078 0.7795824120983668 2.77624650609887 -7.715275923869306 1.6393178293868342 1.007223955041411 11.512405035073913 -19.055683664558916 11.926369373229674 10.191994741961862 21.722784063013936 6.096697448474011 3.3905590468877813 -1.5964573132260296 -8.760588082205144 -0.000001327042602790392 -0.461412547041325 -0.0000027012265238461065 -5.0666269772155035 -1.5866297889854861 10.439593221104223 -5.120665604605397 12.521806110492378 2.166276731796531 1.0506845158279718 -9.933049344942685 -7.810765219517634 0.000001853855474709614 -0.5701443491127706 -1.727509187981502e-7
0.06571659987623041 8.788329037753018 1.3622013910037483 1.5335084601651858 -0.9568611327241767 -5.200599424166053 -1.1622561151652584 1.2357612312460646 2.8824580039048198 1.1484086086890608 1.5146352107981127 11.578237014032508 0 0 0 -0.039694508948968026 1.1544827550749135 -2.16474197356507 1.7590376038063047 1.6795772288292 -8.268803641546315 0 0 0 0 0 0 -13.776672666550379 3.4817856164730165 -5.893293131819752 3.4512293372412834 4.347278067582569 -83.3331544243639 -14.783348571915603 -0.000012728350631724534 -0.000007222959277181261 4.652838756455285 -27.61450733430682 -12.006881676682472 4.666381070923322 0.33774750006671644 -7.816561902736421 2.8352063112468646 0.3890067278247661 -20.547111171606186 0.80924052378435 0.03452048184998975 -10.169323038394094 16.293591900323094 5.494528124131613 -35.3788012000922 3.9918066437790847 1.5251562297548016 -45.54374426781473 2.8329890183929938 0.5568681671299833 -20.498784536660207 8.767499982299965 0.901095764895116 -15.692586361892761 3.9942486367049725 0.91618608399749 -33.336471184112355 1.4912594059277977 0.17075518212319202 -12.259977533143983 11.68523145329728 2.503358288203374 -26.391594443707124 3.8883451070011907 1.7071642445178805 -40.09944403990519 1.8351140211636643 0.5448110453567396 -19.32670125169232 0.21222322631399335 18.639551805273932 11.135282512334516 31.896617830835226 0.8128239906812523 -2.731610394617854 8.678192928836543 1.7973484870106382 -0.18773448157949574 3.352187187916409 4.480437389008454 5.6244414336017545 0.902099470150761 -1.769097095427144 67.58019878814875 17.47504800567508 -0.000015185056257007942 0.00002084116661723992 -10.732596261466599 -10.5533163742462 10.927007019032464 -4.690092403218305 0.341005317327052 7.8165689188222 -2.795136825268802 0.38289159542714646 20.547213905066556 -0.2265434912764467 -0.19319875013130117 13.844661205343167 -16.052849848949347 5.324143660785188 35.400365953894855 -4.028960563423877 1.2635460057894106 45.549981144147175 -0.31195620629003296 -0.76525537533827 22.124682641193857 -8.825805438779934 0.9174745933906093 15.691782484838617 -3.90100252026895 0.8949736693190617 33.33696679525265 -1.7259411098417683 0.21554831195524246 15.891667692377304 -11.66839371017478 2.4949993640998267 26.392434830369783 -3.9123839258104227 1.711651541326692 40.09930910205565 0.023262217125773612 -0.15168060264840616 17.815269195929982 -0.32285243733183594 18.6629010222594 -11.194149769500195 -31.78223503602116 0.7795884957987324 2.7762567403053047 -7.715276770260519 1.639310889635663 1.007194919338392 11.545224520078785 -18.922307727098023 11.823059960328367 10.168472104889682 21.73346185174169 6.0446555988911035 3.3746304717513507 -1.699319828245335 -8.711127450367837 0.0000138859560136519 -0.4841520883069211 0.0000024173194665731493 -5.098484547223669 -1.5271581853349079 10.294285799276539 -5.051233349538466 12.587838995684153 2.1525094164068217 1.0574431990304543 -10.012351645843161 -7.730256157606864 -0.000001555698933296409 -0.5194218169137442 9.099394087429562e-7
